<?xml version="1.0" encoding="UTF-8" standalone="no"?>
<svg
   viewBox="0 0 300 49.859829"
   version="1.1"
   id="svg75"
   width="300"
   height="49.859829"
   sodipodi:docname="logo.svg"
   inkscape:version="1.1.1 (1:1.1+202109281949+c3084ef5ed)"
   xmlns:inkscape="http://www.inkscape.org/namespaces/inkscape"
   xmlns:sodipodi="http://sodipodi.sourceforge.net/DTD/sodipodi-0.dtd"
   xmlns="http://www.w3.org/2000/svg"
   xmlns:svg="http://www.w3.org/2000/svg">
  <sodipodi:namedview
     id="namedview16"
     pagecolor="#ffffff"
     bordercolor="#666666"
     borderopacity="1.0"
     inkscape:pageshadow="2"
     inkscape:pageopacity="0.0"
     inkscape:pagecheckerboard="0"
     showgrid="false"
     width="300px"
     fit-margin-top="0"
     fit-margin-left="0"
     fit-margin-right="0"
     fit-margin-bottom="0"
     inkscape:zoom="1.2042882"
     inkscape:cx="403.1427"
     inkscape:cy="155.27844"
     inkscape:window-width="1920"
     inkscape:window-height="1043"
     inkscape:window-x="1920"
     inkscape:window-y="0"
     inkscape:window-maximized="1"
     inkscape:current-layer="svg75" />
  <defs
     id="defs79" />
  <g
     aria-label="Yuri Vyatkin"
     id="text1835"
     style="font-size:85.3333px;line-height:1.25;font-family:FreeSans;-inkscape-font-specification:FreeSans;letter-spacing:0px;word-spacing:0px"
     transform="matrix(0.61634505,0,0,0.61634505,-4.5266169,-6.7759274)">
    <path
       d="m 40.794943,50.161708 v 23.03999 H 27.994948 V 50.161708 L 7.3442902,10.993724 H 21.594951 L 34.309612,38.471046 46.170941,10.993724 h 14.335994 z"
       style="font-weight:600;-inkscape-font-specification:'FreeSans Semi-Bold'"
       id="path7967" />
    <path
       d="M 108.12289,73.201698 H 96.176225 v -5.461331 q -4.949332,7.423997 -13.823995,7.423997 -7.338663,0 -11.434662,-4.181331 -4.010665,-4.181332 -4.010665,-11.775996 V 27.121718 h 11.946662 v 29.610654 q 0,8.27733 7.679997,8.27733 4.351998,0 6.99733,-2.474666 2.645333,-2.474666 2.645333,-6.570664 V 27.121718 h 11.946665 z"
       style="font-weight:600;-inkscape-font-specification:'FreeSans Semi-Bold'"
       id="path7969" />
    <path
       d="m 119.21613,27.121718 h 11.94666 v 9.045329 q 1.87733,-4.693331 5.29066,-7.25333 3.41333,-2.559999 7.50933,-2.559999 0.768,0 1.45067,0.08533 v 12.117328 q -2.13333,-0.341333 -3.75467,-0.341333 -10.49599,0 -10.49599,10.495996 v 24.490656 h -11.94666 z"
       style="font-weight:600;-inkscape-font-specification:'FreeSans Semi-Bold'"
       id="path7971" />
    <path
       d="m 165.03996,27.121718 v 46.07998 H 153.0933 v -46.07998 z m 0,-16.127994 V 21.660386 H 153.0933 V 10.993724 Z"
       style="font-weight:600;-inkscape-font-specification:'FreeSans Semi-Bold'"
       id="path7973" />
    <path
       d="M 228.27182,73.201698 H 217.43449 L 196.4425,10.993724 h 12.88532 l 13.824,46.847981 13.56799,-46.847981 h 12.88533 z"
       style="font-weight:600;-inkscape-font-specification:'FreeSans Semi-Bold'"
       id="path7975" />
    <path
       d="m 269.31698,75.420364 v -0.341333 l -17.152,-47.957313 h 13.14133 l 10.15466,33.535986 9.55733,-33.535986 h 12.288 l -18.94399,54.527977 q 0,0.08533 -0.34134,1.109333 -0.34133,1.109333 -0.59733,1.450666 -0.17067,0.426666 -0.68267,1.450666 -0.42666,1.109333 -0.93866,1.535999 -0.512,0.512 -1.36534,1.365333 -0.85333,0.938666 -1.96266,1.365333 -1.024,0.511999 -2.38933,1.023999 -1.36534,0.512 -3.15734,0.682667 -1.79199,0.256 -3.92533,0.256 -1.87733,0 -4.26666,-0.341334 v -8.959996 q 1.87733,0.512 3.15733,0.512 3.15733,0 5.29066,-2.218666 2.13334,-2.218666 2.13334,-5.461331 z"
       style="font-weight:600;-inkscape-font-specification:'FreeSans Semi-Bold'"
       id="path7977" />
    <path
       d="m 315.56762,75.164364 q -6.31466,0 -10.15466,-3.754665 -3.84,-3.839998 -3.84,-10.069329 0,-12.202662 13.56799,-14.506661 l 4.77867,-0.853333 q 0.17067,0 1.70666,-0.170666 1.536,-0.256 1.96267,-0.341333 0.42667,-0.170667 1.62133,-0.426667 1.28,-0.256 1.792,-0.597333 0.512,-0.341333 1.19467,-0.853333 0.768,-0.597333 1.024,-1.279999 0.256,-0.768 0.256,-1.706666 0,-4.607999 -6.912,-4.607999 -4.43733,0 -6.22933,1.365333 -1.792,1.365333 -2.21867,4.949332 h -11.51999 q 1.10933,-15.957327 19.71199,-15.957327 18.85866,0 18.85866,14.165327 v 25.59999 q 0,3.157332 2.73067,5.631997 v 1.450666 h -12.97067 q -1.36533,-1.706666 -1.36533,-4.607998 -6.31466,6.570664 -13.99466,6.570664 z m 13.90933,-20.479991 v -3.242666 q -1.62133,0.768 -5.03467,1.450666 l -4.09599,0.768 q -3.75467,0.768 -5.29067,2.218666 -1.536,1.450666 -1.536,4.095998 0,2.559999 1.70667,4.095998 1.792,1.450667 4.77866,1.450667 4.52267,0 6.99733,-2.815999 2.47467,-2.815999 2.47467,-8.02133 z"
       style="font-weight:600;-inkscape-font-specification:'FreeSans Semi-Bold'"
       id="path7979" />
    <path
       d="m 372.74093,28.060384 v 7.935996 h -6.656 v 25.08799 q 0,3.071999 0.768,4.095998 0.768,0.938667 3.15733,0.938667 0.93867,0 2.73067,-0.256 v 8.362663 q -2.90133,0.938666 -6.912,0.938666 -11.69066,0 -11.69066,-10.837329 V 35.99638 h -5.888 v -7.935996 h 5.888 V 15.687056 h 11.94666 v 12.373328 z"
       style="font-weight:600;-inkscape-font-specification:'FreeSans Semi-Bold'"
       id="path7981" />
    <path
       d="m 392.79419,45.04171 15.10399,-17.919992 h 13.568 l -15.70133,17.407992 16.81066,28.671988 h -13.99466 l -11.008,-20.309325 -4.77866,5.205332 V 73.201698 H 380.84753 V 10.993724 h 11.94666 z"
       style="font-weight:600;-inkscape-font-specification:'FreeSans Semi-Bold'"
       id="path7983" />
    <path
       d="m 441.34875,27.121718 v 46.07998 h -11.94666 v -46.07998 z m 0,-16.127994 V 21.660386 H 429.40209 V 10.993724 Z"
       style="font-weight:600;-inkscape-font-specification:'FreeSans Semi-Bold'"
       id="path7985" />
    <path
       d="m 452.86865,27.121718 h 11.94666 v 6.655997 q 4.94933,-7.423997 13.82399,-7.423997 7.33867,0 11.34933,4.181331 4.096,4.181332 4.096,11.775996 V 73.201698 H 482.13797 V 44.78571 q 0,-8.27733 -7.68,-8.27733 -4.352,0 -6.99733,2.474666 -2.64533,2.474666 -2.64533,6.570664 v 27.647988 h -11.94666 z"
       style="font-weight:600;-inkscape-font-specification:'FreeSans Semi-Bold'"
       id="path7987" />
  </g>
</svg>
